<?xml version="1.0" encoding="utf-8"?>
<!-- Generator: Adobe Illustrator 21.1.0, SVG Export Plug-In . SVG Version: 6.00 Build 0)  -->
<svg version="1.1" id="Layer_1" xmlns="http://www.w3.org/2000/svg" xmlns:xlink="http://www.w3.org/1999/xlink" x="0px" y="0px"
	 width="33.125px" height="33.25px" viewBox="0 0 33.125 33.25" enable-background="new 0 0 33.125 33.25" xml:space="preserve">
<symbol  id="Login_Menu" viewBox="-64.804 -17.697 163.238 36">
	<text transform="matrix(1 0 0 -1 -64.8037 -4.4923)"><tspan x="0" y="0" fill="#B2B2B2" font-family="'ProximaNova-Regular'" font-size="16px">u</tspan><tspan x="8.813" y="0" fill="#B2B2B2" font-family="'ProximaNova-Regular'" font-size="16px">se</tspan><tspan x="25.085" y="0" fill="#B2B2B2" font-family="'ProximaNova-Regular'" font-size="16px">r</tspan><tspan x="30.422" y="0" fill="#B2B2B2" font-family="'ProximaNova-Regular'" font-size="16px">@</tspan><tspan x="43.032" y="0" fill="#B2B2B2" font-family="'ProximaNova-Regular'" font-size="16px">e</tspan><tspan x="51.957" y="0" fill="#B2B2B2" font-family="'ProximaNova-Regular'" font-size="16px">m</tspan><tspan x="64.781" y="0" fill="#B2B2B2" font-family="'ProximaNova-Regular'" font-size="16px">a</tspan><tspan x="73.097" y="0" fill="#B2B2B2" font-family="'ProximaNova-Regular'" font-size="16px">i</tspan><tspan x="76.608" y="0" fill="#B2B2B2" font-family="'ProximaNova-Regular'" font-size="16px">l</tspan><tspan x="80.179" y="0" fill="#B2B2B2" font-family="'ProximaNova-Regular'" font-size="16px">.</tspan><tspan x="83.522" y="0" fill="#B2B2B2" font-family="'ProximaNova-Regular'" font-size="16px">c</tspan><tspan x="91.216" y="0" fill="#B2B2B2" font-family="'ProximaNova-Regular'" font-size="16px">o</tspan><tspan x="100.316" y="0" fill="#B2B2B2" font-family="'ProximaNova-Regular'" font-size="16px">m</tspan></text>
	<g>
		<path fill="#D6D6D5" d="M80.434,15.303c-8.28,0-15-6.72-15-15s6.72-15,15-15s15,6.72,15,15S88.714,15.303,80.434,15.303z
			 M80.434,10.803c2.49,0,4.5-2.01,4.5-4.5s-2.01-4.5-4.5-4.5c-2.49,0-4.5,2.01-4.5,4.5S77.944,10.803,80.434,10.803z
			 M80.434-10.497c-3.75,0-7.065,1.92-9,4.83c0.045,2.985,6,4.62,9,4.62c2.985,0,8.955-1.635,9-4.62
			C87.499-8.577,84.184-10.497,80.434-10.497z"/>
		<path fill="none" d="M62.434,18.303h36v-36h-36V18.303z"/>
	</g>
</symbol>
<use xlink:href="#Login_Menu"  width="163.238" height="36" id="XMLID_9_" x="-64.804" y="-17.697" transform="matrix(1 0 0 -1 -64.0227 16.5704)" overflow="visible"/>
</svg>
