<?xml version="1.0" encoding="utf-8"?>
<!-- Generator: Adobe Illustrator 21.1.0, SVG Export Plug-In . SVG Version: 6.00 Build 0)  -->
<svg version="1.1" id="Capa_1" xmlns="http://www.w3.org/2000/svg" xmlns:xlink="http://www.w3.org/1999/xlink" x="0px" y="0px"
	 viewBox="0 0 184 49" style="enable-background:new 0 0 184 49;" xml:space="preserve">
<style type="text/css">
	.st0{fill:#79B73D;}
	.st1{fill:#3A3A3A;}
</style>
<path class="st0" d="M44.2,13.1c-2-3.5-4.8-6.2-8.3-8.3c-3.5-2-7.3-3.1-11.4-3.1c-4.1,0-7.9,1-11.4,3.1c-3.5,2-6.2,4.8-8.3,8.3
	c-2,3.5-3.1,7.3-3.1,11.4c0,4.1,1,7.9,3.1,11.4c2,3.5,4.8,6.2,8.3,8.3c3.5,2,7.3,3.1,11.4,3.1s7.9-1,11.4-3.1c3.5-2,6.2-4.8,8.3-8.3
	c2-3.5,3.1-7.3,3.1-11.4C47.2,20.4,46.2,16.6,44.2,13.1z M38.4,32.7c-1.4,2.5-3.4,4.4-5.9,5.9c-2.5,1.4-5.2,2.2-8.1,2.2
	c-2.9,0-5.6-0.7-8.1-2.2c-2.5-1.4-4.4-3.4-5.9-5.9c-1.4-2.5-2.2-5.2-2.2-8.1c0-2.9,0.7-5.6,2.2-8.1c1.4-2.5,3.4-4.4,5.9-5.9
	c2.5-1.4,5.2-2.2,8.1-2.2c2.9,0,5.6,0.7,8.1,2.2c2.5,1.4,4.4,3.4,5.9,5.9c1.4,2.5,2.2,5.2,2.2,8.1C40.6,27.5,39.8,30.2,38.4,32.7z"
	/>
<path class="st0" d="M24.4,17c-2.1,0-3.9,0.7-5.4,2.2c-1.5,1.5-2.2,3.3-2.2,5.4c0,2.1,0.7,3.9,2.2,5.4c1.5,1.5,3.3,2.2,5.4,2.2
	c2.1,0,3.9-0.7,5.4-2.2c1.5-1.5,2.2-3.3,2.2-5.4c0-2.1-0.7-3.9-2.2-5.4C28.3,17.7,26.5,17,24.4,17z"/>
<path class="st1" d="M54.2,11.4c0-1.8,1.5-3.2,3.2-3.2c1.8,0,3.2,1.4,3.2,3.2c0,1.8-1.4,3.2-3.2,3.2C55.7,14.6,54.2,13.2,54.2,11.4
	 M54.8,16.8h5.4v20.4h-5.4V16.8z"/>
<path class="st1" d="M79.3,37.2V24.9c0-2.8-1.5-3.8-3.8-3.8c-2.1,0-3.8,1.2-4.7,2.4v13.7h-5.4V16.8h5.4v2.7c1.3-1.6,3.8-3.2,7.2-3.2
	c4.5,0,6.6,2.5,6.6,6.5v14.4H79.3z"/>
<path class="st0" d="M115.3,37.2V24.3c0-1.9-0.8-3.3-3-3.3c-1.9,0-3.5,1.3-4.2,2.4v13.8h-5.4V24.3c0-1.9-0.8-3.3-3-3.3
	c-1.9,0-3.4,1.3-4.2,2.4v13.7H90V16.8h5.4v2.7c0.8-1.2,3.6-3.2,6.7-3.2c3,0,4.9,1.4,5.7,3.7c1.2-1.9,3.9-3.7,7-3.7c3.8,0,6,2,6,6.2
	v14.8H115.3z"/>
<path class="st0" d="M124.7,27c0-5.9,4.4-10.7,10.6-10.7c6.1,0,10.2,4.6,10.2,11.3v1.2h-15.2c0.3,2.6,2.4,4.7,5.9,4.7
	c1.7,0,4.1-0.8,5.5-2l2.4,3.5c-2,1.9-5.2,2.8-8.4,2.8C129.4,37.8,124.7,33.6,124.7,27 M135.3,20.6c-3.3,0-4.8,2.5-5,4.5h10.1
	C140.2,23.2,138.8,20.6,135.3,20.6"/>
<path class="st0" d="M149.4,37.2V16.8h5.4v2.8c1.4-1.8,4-3.3,6.5-3.3v5.2c-0.4-0.1-0.9-0.1-1.5-0.1c-1.8,0-4.1,1-5,2.3v13.5
	C154.8,37.2,149.4,37.2,149.4,37.2z"/>
<path class="st0" d="M176.9,37.2v-2.1c-1.4,1.7-3.8,2.6-6.5,2.6c-3.3,0-7.1-2.2-7.1-6.8c0-4.8,3.8-6.6,7.1-6.6
	c2.7,0,5.1,0.9,6.5,2.5v-2.7c0-2.1-1.8-3.4-4.5-3.4c-2.2,0-4.2,0.8-6,2.4l-2-3.6c2.5-2.2,5.7-3.2,8.9-3.2c4.7,0,8.9,1.9,8.9,7.7
	v13.2C182.3,37.2,176.9,37.2,176.9,37.2z M176.9,32.3v-2.5c-0.9-1.2-2.6-1.8-4.3-1.8c-2.1,0-3.8,1.1-3.8,3.1c0,1.9,1.7,3,3.8,3
	C174.3,34.1,176,33.5,176.9,32.3"/>
</svg>
